#define tile_8_width 8
#define tile_8_height 8
static uint8_t tile_8_bits[] = {
  0x00, 0x18, 0x24, 0x18, 0x24, 0x24, 0x18, 0x00, };
