#define tile_1_width 8
#define tile_1_height 8
static uint8_t tile_1_bits[] = {
  0x00, 0x10, 0x18, 0x10, 0x10, 0x10, 0x10, 0x00, };
