#define tile_2_width 8
#define tile_2_height 8
static uint8_t tile_2_bits[] = {
  0x00, 0x1C, 0x20, 0x20, 0x18, 0x04, 0x3C, 0x00, };
