#define tile_3_width 8
#define tile_3_height 8
static uint8_t tile_3_bits[] = {
  0x00, 0x1C, 0x20, 0x20, 0x18, 0x20, 0x1C, 0x00, };
