#define tile_7_width 8
#define tile_7_height 8
static uint8_t tile_7_bits[] = {
  0x00, 0x3C, 0x20, 0x20, 0x10, 0x08, 0x08, 0x00, };
