#define tile_5_width 8
#define tile_5_height 8
static uint8_t tile_5_bits[] = {
  0x00, 0x3C, 0x04, 0x1C, 0x20, 0x20, 0x1C, 0x00, };
