#define tile_4_width 8
#define tile_4_height 8
static uint8_t tile_4_bits[] = {
  0x00, 0x04, 0x14, 0x14, 0x3C, 0x10, 0x10, 0x00, };
