#define tile_6_width 8
#define tile_6_height 8
static uint8_t tile_6_bits[] = {
  0x00, 0x18, 0x24, 0x04, 0x1C, 0x24, 0x18, 0x00, };
